<?xml version="1.0" standalone="no"?><svg xmlns="http://www.w3.org/2000/svg" viewBox="0 0 1440 320"><path fill="#a855f7" fill-opacity="1" d="M0,128L40,138.7C80,149,160,171,240,186.7C320,203,400,213,480,197.3C560,181,640,139,720,112C800,85,880,75,960,80C1040,85,1120,107,1200,112C1280,117,1360,107,1400,101.3L1440,96L1440,320L1400,320C1360,320,1280,320,1200,320C1120,320,1040,320,960,320C880,320,800,320,720,320C640,320,560,320,480,320C400,320,320,320,240,320C160,320,80,320,40,320L0,320Z"></path></svg>